<svg width="569" height="438" viewBox="0 0 569 438" fill="none" xmlns="http://www.w3.org/2000/svg">
<g clip-path="url(#clip0_189_59)">
<path d="M198.3 430.1L194.2 428.2L191.6 423.8L189 419.3V407.3V395.3L191.3 391.9L193.5 388.5L196.9 386.3L200.3 384H205.2H210.1L212.3 385.1C213.5 385.7 215.7 387.4 217.2 388.8L220 391.4L218.3 393.3C217.3 394.3 215.7 395.6 214.7 396.1L212.9 397.1L210.3 395.1L207.7 393H205.3H202.9L200.5 395.5L198 397.9V407.5V417.1L199 418.9L199.9 420.7L202.9 421.9L205.8 423.2L208.2 422C209.4 421.3 211.2 419.9 212 418.9L213.5 416.9L217 418.1C218.9 418.7 220.8 419.6 221.3 420L222 420.6L219.1 424.7L216.2 428.7L212.1 430.4L208 432H205.2H202.5L198.3 430.1Z" fill="#B77F2E"/>
<path d="M349.4 430.5C349.1 429.8 349.001 427.7 349.201 425.9L349.5 422.6L352.9 421.9L356.201 421.2L358.201 419.2L360.201 417.3L356.5 407.4C354.5 401.9 351.7 394.9 350.4 391.8C349.1 388.6 348 385.6 348 385V384H352.4H356.8L359.8 391.3C361.5 395.2 363.2 399.7 363.5 401.3C363.9 402.8 364.5 404 364.9 404C365.2 404 367.1 399.6 369.1 394.2L372.6 384.5L376.1 384.2L379.5 384L380.701 384.8L382 385.6L375.1 403.2C367.6 422.7 366.5 424.8 361.8 428.3L358.5 430.7L354.201 431.3L349.9 431.8L349.4 430.5Z" fill="#B77F2E"/>
<path d="M102 408V385H105C106.7 385 108.3 384.9 108.8 384.8L109.5 384.5L110 398.5L110.5 412.5L118.7 401.5L126.9 390.5L127 387.9V385.3L130.7 384.7L134.3 384.1L135.2 384.6L136 385.1V408.1V431H131.5H127.1L126.8 419L126.5 406.9L122.2 412.7C111.6 427 110 429.3 110 430.1V431H106H102V408Z" fill="#B77F2E"/>
<path d="M147 408.1V385.1L148.1 384.5L149.1 383.8L152.6 384.4L156 385.1V396.5V408H163.5H170.9L171.2 396.3L171.5 384.5L173.3 384.2C174.3 384 176.2 384.1 177.6 384.4L180 385V408.1V431.1L175.8 430.8L171.5 430.5L171.2 424.3L170.9 418H163.5H156V424.5V431H151.5H147V408.1Z" fill="#B77F2E"/>
<path d="M238.8 412.799L238.5 394.499L232.8 394.199L227 393.899V388.899V383.899L242.8 384.199L258.5 384.499L258.8 389.199L259.1 393.899L253.3 394.199L247.5 394.499L247.2 412.799L247 430.999H243H239L238.8 412.799Z" fill="#B77F2E"/>
<path d="M268.201 407.9L268.5 384.7L272.1 384.3L275.701 384L276.3 387.7L277 391.5L276.3 401.7L275.701 412L276.6 411.9C277.1 411.9 281.2 406.7 285.8 400.5L294 389V387.1V385.3L297.1 384.6L300.201 384L301.1 384.6L302 385.1V408.1V431H298H294V418.9V406.8L293.1 407.2C291.9 407.6 276 429.1 276 430.2V431H272H268L268.201 407.9Z" fill="#B77F2E"/>
<path d="M321.6 430.299L320.9 429.599L321.1 411.999L321.201 394.499L315.6 394.199L310 393.899V388.899V383.899L325.8 384.199L341.5 384.499L341.8 389.199L342.1 393.899L336.3 394.199L330.5 394.499L330.201 412.799L330 430.999H326.1H322.3L321.6 430.299Z" fill="#B77F2E"/>
<path d="M398.701 430.3L398 429.7V411.9V394.1L392.3 393.8L386.5 393.5V389V384.5L402.8 384.2L419 384V389V394H413H407V412.5V431H403.201C401.101 431 399.001 430.7 398.701 430.3Z" fill="#B77F2E"/>
<path d="M426.4 429.699C426.2 428.999 426.1 418.599 426.2 406.499L426.5 384.499L430.8 384.199L435 383.899V391.899V399.999H440.1H445.2L448.6 401.599L452 403.199L454.2 406.299L456.4 409.299L456.8 414.599L457.2 419.899L455 423.499L452.7 427.199L449.6 429.099L446.5 430.999H436.7H426.9L426.4 429.699ZM447 419.499L448.3 417.999V415.499V412.999L447 411.499L445.8 409.999H440.4H435V415.499V420.999H440.4H445.8L447 419.499Z" fill="#B77F2E"/>
<path d="M460.4 429.699C460.2 428.999 460.1 418.599 460.2 406.499L460.5 384.499L464.8 384.199L469 383.899V407.399V430.999H465H460.9L460.4 429.699Z" fill="#B77F2E"/>
<path d="M496 360.499L492.5 358.899L490.7 356.399L488.9 353.899L488.3 350.499L487.7 346.999H491.7H495.7L496.8 349.499L498 351.999H502.8H507.6L508.8 350.799L510 349.599V346.899V344.199L508.7 343.199L507.4 342.099L502.5 341.799L497.5 341.499L497.2 337.299L496.9 332.999H500.8H504.8L507.1 331.099L509.5 329.199L508.5 326.399L507.5 323.499L503.8 323.199L500.1 322.899L497.9 325.099L495.8 327.199L492.6 324.099L489.5 320.899L493.2 317.499L497 313.999L500.2 313.899C509.4 313.599 511.7 314.399 515.1 319.099L517.3 322.199L517.4 327.499V332.799L516.2 334.199L515 335.699L516.6 338.999L518.3 342.299L518.7 346.399L519.1 350.499L517.3 353.899L515.5 357.399L512.9 359.199L510.4 361.099L504.9 361.599L499.5 361.999L496 360.499Z" fill="#B77F2E"/>
<path d="M4 337.5V314H20H36V337.5V361H32H28V342.5V323.9L20.3 324.2L12.5 324.5L12.7 340.5C12.9 349.3 12.8 357.5 12.5 358.8L12 361H8H4V337.5Z" fill="#B77F2E"/>
<path d="M43.4004 359.599L42.9004 358.299L46.8004 346.399C49.0004 339.899 52.0004 330.499 53.5004 325.499C55.0004 320.599 56.8004 315.899 57.3004 315.199L58.3004 313.899L62.3004 314.199L66.3004 314.499L68.8004 322.499C70.1004 326.899 73.4004 336.999 76.1004 344.999L80.9004 359.499L80.1004 360.299L79.3004 361.099L75.4004 360.799L71.5004 360.499L71.2004 358.499C70.9004 357.399 70.3004 355.899 69.8004 355.299L68.8004 353.999H61.3004H53.9004L52.4004 357.499L51.0004 360.999H47.5004H43.9004L43.4004 359.599ZM66.0004 343.599C66.0004 341.899 62.9004 331.799 62.0004 330.699L61.4004 329.999L59.2004 336.399C58.0004 339.899 57.0004 343.299 57.0004 343.899V344.999H61.5004H66.0004V343.599Z" fill="#B77F2E"/>
<path d="M87.5006 359.8C87.2006 359.1 87.1006 348.6 87.2006 336.5L87.5006 314.5L97.5006 314.6H107.501L109.701 315.8C110.901 316.5 113.101 318.6 114.601 320.5L117.301 324.1V329.3L117.401 334.5L115.501 337.8L113.501 341L109.501 343L105.401 345H100.701H96.1006L95.8006 352.8L95.5006 360.5L91.7006 360.8L88.0006 361.1L87.5006 359.8ZM105.301 334.9C108.101 333.4 109.001 332.1 109.001 329.3V327.1L107.401 325.6L105.901 324H100.901H96.0006V330V336H99.6006H103.101L105.301 334.9Z" fill="#B77F2E"/>
<path d="M116.7 360.2L116.2 359.5L123.4 337L130.7 314.5H135.1H139.5L146.7 336C150.6 347.8 153.9 358.3 153.9 359.3L154 361.1L149.8 360.8L145.5 360.5L143.3 354C142.1 350.4 139.9 343.5 138.5 338.6L135.8 329.8L135 330.6C134.6 331.1 132.3 337.6 130 345C127.6 352.4 125.3 359.1 124.7 359.8L123.8 361H120.4H117.1L116.7 360.2Z" fill="#B77F2E"/>
<path d="M158 359.9C158 359.2 158.9 356.1 159.9 353.1C161 350 164.2 340.2 167.1 331.2L172.3 315L174.5 314.4C175.8 314.1 177.8 314 179.1 314.2L181.4 314.5L183.1 319.5C186.9 330.9 196 359.6 196 360.3V361H191.5H187.1L186.2 357.8L185.4 354.5L177.2 354.2L169 353.9L168.4 355.7C168.1 356.7 167.5 358.2 167.1 359L166.3 360.5L162.1 360.8L158 361.1V359.9ZM181.7 343.8C181.5 343.1 180.4 339.7 179.4 336.3C178.4 332.8 177.3 330 176.9 330C176.4 330 174.3 336 172.2 343.8L171.9 345H177H182.2L181.7 343.8Z" fill="#B77F2E"/>
<path d="M202.4 359.699C202.2 358.999 202.1 348.599 202.2 336.499L202.5 314.499L206.5 314.199L210.5 313.899L216.3 325.999L222.1 337.999L222.9 337.599C223.3 337.299 226.1 331.899 229.1 325.499L234.5 313.899L238.5 314.199L242.5 314.499V337.499V360.499H238.5H234.5L234.2 348.499L233.9 336.499L230.6 342.999L227.4 349.499L222.7 349.799L218 350.099L214.7 343.299L211.5 336.499L211.2 348.799L210.9 360.999H206.9H202.9L202.4 359.699Z" fill="#B77F2E"/>
<path d="M254.4 359.7C254.2 359 254.1 348.6 254.2 336.5L254.5 314.5H268H281.5V319V323.5L272.3 323.8L263 324.1V328.5V333H271.6H280.1L279.8 337.3L279.5 341.5L271.3 341.8L263 342.1V346.5V351H268.8C271.9 351 276.2 351.3 278.3 351.6L282 352.3V356.6V361H268.5H254.9L254.4 359.7Z" fill="#B77F2E"/>
<path d="M291.201 337.8L291.5 314.5H295.5H299.5L299.8 326.3L300.1 338H307.5H314.9L315.201 326.3L315.5 314.5H319.5H323.5L323.8 337.8L324 361.1L319.8 360.8L315.5 360.5L315 354L314.5 347.5L307.3 347.2L300.1 346.9L299.8 353.7L299.5 360.5L295.201 360.8L291 361.1L291.201 337.8Z" fill="#B77F2E"/>
<path d="M345 342.5V324H339H333V319V314H349H365V319V323.9L359.3 324.2L353.5 324.5L353.201 342.8L353 361H349H345V342.5Z" fill="#B77F2E"/>
<path d="M366 360.4C366 360.1 369.201 349.8 373.201 337.6L380.4 315.5L381.4 314.7L382.5 314L385.9 314.2L389.3 314.5L390.1 316C391 317.6 402.5 353.8 403.6 358.3L404.201 361H400.1H395.9L394.4 357.5L393 354H385H376.9L376.4 355.8C376.1 356.7 375.5 358.2 375.1 359L374.3 360.5L370.1 360.8L366 361.1V360.4ZM390 344.3C390 342.8 385.6 330 385.1 330C384.7 330 383.7 332.6 382.8 335.8C381.9 339 380.8 342.4 380.4 343.3L379.8 345H384.9H390V344.3Z" fill="#B77F2E"/>
<path d="M411 337.399V313.699L421.4 314.199L431.701 314.699L434.701 316.799L437.8 318.999L439.4 322.399L441 325.799V329.399V333.099L439.6 336.399L438.201 339.699L434.9 342.099L431.6 344.399L425.3 344.799L419 345.199V353.099V360.999H415H411V337.399ZM429.8 334.399L432 332.899V329.599V326.199L430.6 325.099L429.201 323.899L424.3 324.199L419.5 324.499L419.201 328.899C419.001 331.299 419.1 333.899 419.4 334.599L419.9 335.999H423.701H427.6L429.8 334.399Z" fill="#B77F2E"/>
<path d="M449 337.499V313.999H453H457V327.499V340.999H457.9C458.4 340.999 459.1 340.299 459.4 339.399C459.7 338.599 462.7 333.699 466 328.599L472 319.299V316.599V313.899L476.3 314.199L480.5 314.499V337.499V360.499L476.3 360.799L472 361.099V348.399V335.699L468.9 340.599C467.1 343.299 464.2 347.799 462.4 350.499C460.6 353.299 458.6 356.699 457.9 358.299L456.701 360.999H452.8H449V337.499Z" fill="#B77F2E"/>
<path d="M526.4 359.699C526.2 358.999 526.1 348.599 526.2 336.499L526.5 314.499H530.8H535.1L540.4 325.799C543.4 331.999 546.1 337.199 546.6 337.299L547.4 337.499L549.7 332.999C550.9 330.499 553.4 325.399 555.3 321.499L558.7 314.499L562.9 314.199L567 313.899L566.8 337.199L566.5 360.499H562.5H558.5L558 348.999L557.5 337.499L554.6 343.799L551.7 349.999H547H542.2L538.8 343.299L535.5 336.499L535.2 348.799L534.9 360.999H530.9H526.9L526.4 359.699Z" fill="#B77F2E"/>
<path d="M133.4 262.099C133.2 261.899 133 206.799 133 139.799V17.9992H143.5H154V22.4992V26.9992H162.4H170.8L183.6 16.5992L196.5 6.19922L198 6.99922C198.8 7.49922 204.7 12.1992 211 17.3992L222.5 26.9992H230.8H239V22.4992V17.8992L249.8 18.1992L260.5 18.4992L260.701 140.299L260.9 261.999L259.701 262.099C255.4 262.399 133.8 262.399 133.4 262.099ZM147.5 139.999V33.4992L143.8 33.1992L140 32.8992V139.999V247.099L143.8 246.799L147.5 246.499V139.999ZM222 144.599V42.0992L221.3 41.7992C220.8 41.5992 209.6 41.5992 196.3 41.7992L172 42.0992V144.499V246.999H197H222V144.599ZM253.5 139.999V33.4992L249.8 33.1992L246 32.8992V139.999V247.099L249.8 246.799L253.5 246.499V139.999Z" fill="#B77F2E"/>
<path d="M310.4 262.1C310.2 261.9 310 213.3 310 154.3V46.8996L311.5 44.0996C312.3 42.4996 314.3 40.0996 315.9 38.6996L318.9 36.1996L322.6 34.9996L326.201 33.7996L330.6 34.9996L335 36.2996L338.5 40.0996C340.4 42.2996 342 44.4996 342 44.9996C342 45.5996 342.5 45.9996 343 45.9996H344V37.9996V30.0996L346.1 24.2996L348.3 18.5996L353 13.9996L357.6 9.29961L363.1 7.39961L368.5 5.59961L374.5 5.69961H380.5L385.5 7.49961L390.5 9.19961L394.201 12.1996L397.9 15.0996L400.5 20.4996L403.201 25.8996L403.701 36.0996L404.3 46.2996L405.701 44.3996C406.4 43.3996 408.4 40.9996 410.1 39.2996L413.3 35.9996L417.1 34.9996L421 33.8996L424.9 34.9996L428.701 35.9996L431.4 38.0996L434.1 40.1996L436 44.0996L438 47.8996V155V262L436.8 262.1C430.5 262.4 310.7 262.4 310.4 262.1ZM337 152V56.9996H327.5H318V152V247H327.5H337V152ZM395 156.5V65.9996H374H353V156.5V247H374H395V156.5ZM429.8 151.8L430 56.9996H420H410V151.3V245.7L410.701 246.4L411.4 247.1L420.5 246.8L429.5 246.5L429.8 151.8Z" fill="#B77F2E"/>
<path d="M4.20039 254.8L4.50039 247.5L60.3004 247.2L116 247V254.5V262H60.0004H3.90039L4.20039 254.8Z" fill="#B77F2E"/>
<path d="M455 254.5V247L510.8 247.2L566.5 247.5L566.8 254.8L567.1 262H511H455V254.5Z" fill="#B77F2E"/>
<path d="M200.6 431L197.7 430.1L194.8 427.3C193.1 425.8 191.2 423.3 190.4 421.8L189 419.1V407.8V396.5L191.3 392.5L193.5 388.5L197.5 386.3L201.5 384H205.8H210.1L212.8 385.4C214.3 386.2 216.5 387.9 217.8 389.3L220.1 391.8L216.6 394.5L213.1 397.1L211.1 395.1L209 393H206.1H203.1L200.6 395.3L198 397.5L197.4 403.2L196.7 408.8L197.5 413.5L198.2 418.2L200.7 420.6L203.3 423H205.7H208.2L211 420L213.8 417L217.4 418.5C219.4 419.3 221 420.3 221 420.7C221 421.1 220 422.8 218.8 424.6L216.6 427.8L214 429.4L211.3 430.9L207.4 431.4L203.5 431.9L200.6 431Z" fill="#020202"/>
<path d="M102 408V385H106H110V398.5V412H110.8C111.2 412 115.2 406.8 119.8 400.4L128 388.8V386.9V385H132H136L135.8 407.8L135.5 430.5H131.5H127.5V419.3V408.2L126.8 407.5L126.2 406.9L119.3 416.2C115.5 421.3 111.6 426.7 110.6 428.3L108.8 431H105.4H102V408Z" fill="#020202"/>
<path d="M147.7 430.4L147 429.7V407.3V384.9L151.3 385.2L155.5 385.5L155.8 396.8L156.1 408H164H172V396.5V385H176H180V408V431H176H172.1L171.8 424.3L171.5 417.5L163.8 417.2L156.1 416.9L155.8 423.7L155.5 430.5L152 430.8L148.4 431.1L147.7 430.4Z" fill="#020202"/>
<path d="M239 412.5V394H233H227V389.5V385H243H259V389.5V394H253H247V412.5V431H243H239V412.5Z" fill="#020202"/>
<path d="M268 408V385H272H275.9L276.2 399.1L276.5 413.2L285.3 401.2L294 389.3V387.1V385H298H302L301.8 407.8L301.5 430.5L297.8 430.8L294 431.1V418.6V406H293.3C292.5 406 285.7 415.3 279.2 425.2L275.5 430.9L271.8 431H268V408Z" fill="#020202"/>
<path d="M322 412.5V394H316H310V389.5V385H326.1H342.1L341.8 389.3L341.5 393.5L335.8 393.8L330 394.1V412.5V431H326H322V412.5Z" fill="#020202"/>
<path d="M350 427.201V423.301L354 422.101L358.1 420.901L359.1 418.701L360 416.501L354.1 401.001L348.2 385.501L351.7 385.201C353.6 385.001 355.8 385.101 356.4 385.301L357.6 385.801L361 394.901C362.9 399.901 364.7 404.001 365 404.001C365.3 404.001 367.1 399.901 369 394.901L372.5 385.801L373.6 385.301C374.3 385.101 376.4 385.001 378.3 385.201L381.9 385.501L378.3 394.501C376.4 399.501 373.5 407.101 371.9 411.501L368.9 419.501L366.4 423.301L363.9 427.101L360.7 429.001L357.5 431.001H353.8H350V427.201Z" fill="#020202"/>
<path d="M399 412.6V394.1L392.8 393.8L386.5 393.5L386.2 389.3L385.9 385H402.4H419V389.5V394H413H407L406.8 412.3L406.5 430.5L402.8 430.8L399 431.1V412.6Z" fill="#020202"/>
<path d="M427 408V385H431H435V392.5V400H439.5H444.1L447.3 401.4L450.6 402.7L453.3 405.9L455.9 409.1L456.6 412.6L457.3 416.2L456.1 419.9C454.8 424.5 452.5 427.2 448.3 429.4L445.1 431H436H427V408ZM446.4 419.9L449 417.9V415.8V413.7L447.3 411.8L445.7 410H440.3H435V415.3V420.7L435.7 421.3C436 421.7 438 422 440 422H443.7L446.4 419.9Z" fill="#020202"/>
<path d="M461 408V385H465H469V408V431H465H461V408Z" fill="#020202"/>
<path d="M497.6 361C492.6 359.4 488 353.7 488 349V347H491.8H495.7L496.8 349.4L497.9 351.8L501 352.5L504.1 353.2L507.1 352L510 350.8V347.6V344.4L508.8 343.2L507.6 342H502.8H498V337.5V333H501.9H505.9L507.4 331.4L509 329.9V327.5V325L506.4 323.3L503.8 321.6L499.3 324L494.9 326.3L492.3 323.7L489.6 321.1L491.6 318.9C492.6 317.8 494.7 316.2 496.2 315.4L498.9 314H504H509L512.6 317.3L516.1 320.5L517 324.4L517.9 328.3L516.4 332.6L514.9 337L516.7 339.6L518.4 342.2V346.9V351.5L516.7 354.7L515 358L512 359.5L509 361L504.8 361.5L500.5 361.9L497.6 361Z" fill="#020202"/>
<path d="M262.3 360.3L254 359.9V337.5V315H267.5H281V319.5V324H272.1H263.1L262.5 325.1L261.8 326.1L262.4 329.6L263.1 333H271H279V337.5V342H271.1H263.1L262.7 342.8C262.5 343.2 262.5 345.4 262.8 347.8L263.2 352H272.6H282V355.9V359.8L280.4 360.4C279.5 360.7 277 360.9 274.7 360.8C272.4 360.7 266.8 360.4 262.3 360.3Z" fill="#020202"/>
<path d="M292.8 360.2L291 359.9V337.4V315H295H299V326.5V338H307H315V326.5V315H319.5H324V337.4V359.8L320.6 360.2C318.7 360.4 316.7 360.4 316.1 360.2L315 359.8V353.4V346.9L307.3 347.2L299.5 347.5L299.2 353.8L298.9 360L298.2 360.1C297.8 360.1 296.8 360.3 296 360.4C295.2 360.5 293.7 360.5 292.8 360.2Z" fill="#020202"/>
<path d="M4 337.5V315H20H36V337.5V360H32H28V342V324H20H12V342V360H8H4V337.5Z" fill="#020202"/>
<path d="M43.5004 357.8C43.9004 356.5 47.1004 346.4 50.7004 335.3L57.2004 315H62.1004H67.0004V316.4C67.0004 317.8 75.7004 345.4 79.1004 354.8L81.0004 360H76.4004H71.9004L70.9004 357L69.8004 354H61.4004H53.0004L52.4004 357L51.8004 360H47.3004H42.9004L43.5004 357.8ZM66.6004 343.3C66.2004 342.4 65.1004 339 64.2004 335.8C63.3004 332.6 62.2004 330 61.8004 330C61.1004 330 57.0004 341.6 57.0004 343.7V345H62.1004H67.2004L66.6004 343.3Z" fill="#020202"/>
<path d="M87 337.5V315H97.6H108.2L111.1 317.1L114 319.2L115.6 322.2L117.2 325.2V329.5V333.8L115.6 336.8L114 339.8L111.1 341.9L108.2 344L102.1 344.6L96 345.3V352.6V360H91.5H87V337.5ZM106.8 334.4L109 332.9V329.6V326.4L107.8 325.2L106.6 324H101.3H96V330V336H100.3H104.6L106.8 334.4Z" fill="#020202"/>
<path d="M117 358.8C117 357.1 128.8 320.2 130.3 317L131.6 314.5H135.5H139.4L141.1 319.5C142.1 322.3 145.2 331.9 148 341C150.9 350.1 153.5 358.1 153.7 358.8L154.2 360H149.8H145.4L140.6 345L135.9 330L135 330.5C134.6 330.8 132.5 336.3 130.5 342.8C128.5 349.2 126.4 355.7 125.8 357.3L124.8 360H120.9H117V358.8Z" fill="#020202"/>
<path d="M158.3 358.6C158.6 357.8 162 347.6 165.7 336.1L172.5 315H177.1H181.6L186.5 330.3C189.1 338.6 192.3 348.8 193.6 352.8L195.8 360H191.5H187.2L186.1 357L185.1 354H177H168.8L167.7 357L166.6 360H162.2H157.8L158.3 358.6ZM182 344.2C182 343.4 179.1 334.3 177.4 330L176.8 328.5L174.4 336C173.1 340.1 172 343.8 172 344.3V345H177H182V344.2Z" fill="#020202"/>
<path d="M203.2 337.301L203.5 314.501H207H210.5L216.6 327.001L222.7 339.501L228.5 327.201L234.4 314.901L236.6 314.401C237.8 314.101 239.7 314.001 240.7 314.201L242.5 314.501L242.8 337.301L243 360.001H238.6H234.1L233.8 348.301L233.5 336.501L230.3 343.301L227.1 350.001H222.8H218.4L214.8 342.801L211.1 335.501V347.801L211 360.001H207H203L203.2 337.301Z" fill="#020202"/>
<path d="M345 342V324H339H333V319.5V315H349H365V319.5V324H359H353V342V360H349H345V342Z" fill="#020202"/>
<path d="M366.3 359.3C366.5 358.9 369.5 349.7 372.9 339C376.3 328.3 379.5 318.5 380 317.3L381 315H385.4H389.8L392.9 324.8C394.6 330.1 397.8 340.1 400 347C402.2 353.9 404 359.6 404 359.8C404 359.9 402.1 360 399.7 360H395.4L394.3 357L393.1 353.9L384.9 354.2L376.6 354.5L376 357L375.4 359.5L370.6 359.8L365.8 360.1L366.3 359.3ZM390 344.1C390 343.6 389.1 340.2 388 336.6L385.9 330H385.1H384.3L382.4 336.3C381.4 339.7 380.4 343.1 380.2 343.8L379.9 345H384.9H390V344.1Z" fill="#020202"/>
<path d="M411 337.5V315H421.1H431.2L434.1 316.7L437 318.5L439 322.5L441 326.6V329.9V333.2L439.4 336.6L437.8 340L434.9 342.1L432.1 344.1L425.5 344.7L419 345.3V352.6V360H415H411V337.5ZM430 335L431.8 334.1L432.4 331.4L433.1 328.8L431.5 326.4L430 324H424.5H419V329.3V334.7L419.7 335.3C420 335.7 422.1 336 424.2 336H428.1L430 335Z" fill="#020202"/>
<path d="M449 337.5V315H453H456.9L457.2 328.7L457.5 342.5L464.8 331.1L472 319.7V317.3V315H476H480V337.5V360H476H472.1L471.8 347.9L471.5 335.9L464 347.9L456.5 360H452.8H449V337.5Z" fill="#020202"/>
<path d="M527 336.9V313.9L530.8 314.2L534.5 314.5L540.1 326C543.3 332.3 546.2 337.6 546.7 337.7L547.7 338.1L553.3 326L559 313.9L562.7 314.2L566.5 314.5L566.8 337.3L567 360H563H559V348.5V337H558.2C557.8 337 556.1 339.8 554.4 343.3L551.4 349.5L546.9 349.8L542.3 350.1L538.9 342.8L535.5 335.5L535.2 347.8L534.9 360H531H527V336.9Z" fill="#020202"/>
</g>
<defs>
<clipPath id="clip0_189_59">
<rect width="569" height="438" fill="white"/>
</clipPath>
</defs>
</svg>
